<?xml version="1.0" encoding="UTF-8"?>
<svg xmlns="http://www.w3.org/2000/svg" xmlns:xlink="http://www.w3.org/1999/xlink" width="25px" height="25px" viewBox="0 0 25 25" version="1.1">
<path style=" stroke:none;fill-rule:nonzero;fill:rgb(0%,0%,0%);fill-opacity:1;" d="M 23.203125 13.488281 C 23.746094 12.941406 23.746094 12.054688 23.203125 11.507812 L 17.648438 5.929688 C 17.105469 5.386719 16.226562 5.386719 15.679688 5.929688 C 15.140625 6.476562 15.140625 7.359375 15.679688 7.90625 L 18.867188 11.105469 L 9.722656 11.105469 C 8.953125 11.105469 8.332031 11.730469 8.332031 12.5 C 8.332031 13.269531 8.953125 13.894531 9.722656 13.894531 L 18.867188 13.894531 L 15.679688 17.097656 C 15.140625 17.640625 15.140625 18.527344 15.679688 19.070312 C 16.226562 19.613281 17.105469 19.613281 17.648438 19.070312 L 23.203125 13.492188 Z M 8.332031 5.523438 C 9.101562 5.523438 9.722656 4.898438 9.722656 4.128906 C 9.722656 3.359375 9.101562 2.734375 8.332031 2.734375 L 5.554688 2.734375 C 3.253906 2.734375 1.386719 4.609375 1.386719 6.917969 L 1.386719 18.082031 C 1.386719 20.390625 3.253906 22.265625 5.554688 22.265625 L 8.332031 22.265625 C 9.101562 22.265625 9.722656 21.640625 9.722656 20.871094 C 9.722656 20.101562 9.101562 19.476562 8.332031 19.476562 L 5.554688 19.476562 C 4.789062 19.476562 4.167969 18.851562 4.167969 18.082031 L 4.167969 6.917969 C 4.167969 6.148438 4.789062 5.523438 5.554688 5.523438 Z M 8.332031 5.523438 "/>
</svg>
