<svg width="380" height="189" viewBox="0 0 380 189" fill="none" xmlns="http://www.w3.org/2000/svg">
<path d="M23.104 188.38C22.1414 188.38 21.3307 188.051 20.672 187.392C20.0134 186.733 19.684 185.923 19.684 184.96V141.412H4.18004C3.26804 141.412 2.50804 141.108 1.90004 140.5C1.29204 139.892 0.988037 139.132 0.988037 138.22C0.988037 137.308 1.29204 136.548 1.90004 135.94C2.50804 135.281 3.26804 134.952 4.18004 134.952H42.028C42.94 134.952 43.7 135.281 44.308 135.94C44.9667 136.548 45.296 137.308 45.296 138.22C45.296 139.132 44.9667 139.892 44.308 140.5C43.7 141.108 42.94 141.412 42.028 141.412H26.6V184.96C26.6 185.923 26.2454 186.733 25.536 187.392C24.8774 188.051 24.0667 188.38 23.104 188.38Z" fill="black"/>
<path d="M75.3131 188.76C69.9931 188.76 65.3317 187.595 61.3291 185.264C57.3264 182.933 54.2357 179.716 52.0571 175.612C49.8784 171.508 48.7384 166.796 48.6371 161.476C48.7384 156.156 49.8784 151.444 52.0571 147.34C54.2357 143.236 57.3264 140.019 61.3291 137.688C65.3317 135.357 69.9931 134.192 75.3131 134.192C80.6331 134.192 85.2691 135.357 89.2211 137.688C93.2237 140.019 96.3144 143.261 98.4931 147.416C100.722 151.52 101.888 156.207 101.989 161.476C101.888 166.745 100.722 171.457 98.4931 175.612C96.3144 179.716 93.2237 182.933 89.2211 185.264C85.2691 187.595 80.6331 188.76 75.3131 188.76ZM75.3131 182.3C79.3664 182.3 82.8877 181.388 85.8771 179.564C88.8664 177.74 91.1464 175.257 92.7171 172.116C94.2877 168.975 95.0731 165.428 95.0731 161.476C95.0731 157.524 94.2877 153.977 92.7171 150.836C91.1464 147.695 88.8664 145.212 85.8771 143.388C82.8877 141.564 79.3664 140.652 75.3131 140.652C71.2091 140.652 67.6624 141.564 64.6731 143.388C61.7344 145.212 59.4797 147.695 57.9091 150.836C56.3384 153.977 55.5531 157.524 55.5531 161.476C55.5531 165.428 56.3384 168.975 57.9091 172.116C59.4797 175.257 61.7344 177.74 64.6731 179.564C67.6624 181.388 71.2091 182.3 75.3131 182.3Z" fill="black"/>
<path d="M116.925 188C115.962 188 115.152 187.671 114.493 187.012C113.834 186.353 113.505 185.543 113.505 184.58V138.448C113.505 137.485 113.834 136.675 114.493 136.016C115.152 135.307 115.962 134.952 116.925 134.952H132.201C137.977 134.952 142.866 136.244 146.869 138.828C150.922 141.361 153.962 144.655 155.989 148.708C158.016 152.761 159.029 157.017 159.029 161.476C159.029 165.935 158.016 170.191 155.989 174.244C153.962 178.297 150.922 181.616 146.869 184.2C142.866 186.733 137.977 188 132.201 188H116.925ZM131.365 181.54C135.52 181.54 139.168 180.704 142.309 179.032C145.45 177.309 147.882 174.953 149.605 171.964C151.328 168.924 152.189 165.428 152.189 161.476C152.189 157.524 151.328 154.053 149.605 151.064C147.882 148.024 145.45 145.668 142.309 143.996C139.168 142.273 135.52 141.412 131.365 141.412H120.421V181.54H131.365Z" fill="black"/>
<path d="M194.063 188.76C188.743 188.76 184.082 187.595 180.079 185.264C176.076 182.933 172.986 179.716 170.807 175.612C168.628 171.508 167.488 166.796 167.387 161.476C167.488 156.156 168.628 151.444 170.807 147.34C172.986 143.236 176.076 140.019 180.079 137.688C184.082 135.357 188.743 134.192 194.063 134.192C199.383 134.192 204.019 135.357 207.971 137.688C211.974 140.019 215.064 143.261 217.243 147.416C219.472 151.52 220.638 156.207 220.739 161.476C220.638 166.745 219.472 171.457 217.243 175.612C215.064 179.716 211.974 182.933 207.971 185.264C204.019 187.595 199.383 188.76 194.063 188.76ZM194.063 182.3C198.116 182.3 201.638 181.388 204.627 179.564C207.616 177.74 209.896 175.257 211.467 172.116C213.038 168.975 213.823 165.428 213.823 161.476C213.823 157.524 213.038 153.977 211.467 150.836C209.896 147.695 207.616 145.212 204.627 143.388C201.638 141.564 198.116 140.652 194.063 140.652C189.959 140.652 186.412 141.564 183.423 143.388C180.484 145.212 178.23 147.695 176.659 150.836C175.088 153.977 174.303 157.524 174.303 161.476C174.303 165.428 175.088 168.975 176.659 172.116C178.23 175.257 180.484 177.74 183.423 179.564C186.412 181.388 189.959 182.3 194.063 182.3Z" fill="black"/>
<path d="M237.043 188C235.726 188 234.586 187.544 233.623 186.632C232.711 185.669 232.255 184.529 232.255 183.212V138.068C232.255 137.105 232.584 136.295 233.243 135.636C233.902 134.927 234.712 134.572 235.675 134.572C236.638 134.572 237.448 134.927 238.107 135.636C238.816 136.295 239.171 137.105 239.171 138.068V181.084H264.023C264.986 181.084 265.796 181.439 266.455 182.148C267.164 182.807 267.519 183.617 267.519 184.58C267.519 185.543 267.164 186.353 266.455 187.012C265.796 187.671 264.986 188 264.023 188H237.043Z" fill="black"/>
<path d="M279.464 188.38C278.501 188.38 277.691 188.051 277.032 187.392C276.373 186.733 276.044 185.923 276.044 184.96V138.068C276.044 137.105 276.373 136.295 277.032 135.636C277.691 134.927 278.501 134.572 279.464 134.572C280.427 134.572 281.237 134.927 281.896 135.636C282.605 136.295 282.96 137.105 282.96 138.068V184.96C282.96 185.923 282.605 186.733 281.896 187.392C281.237 188.051 280.427 188.38 279.464 188.38Z" fill="black"/>
<path d="M314.436 188.76C308.001 188.76 301.972 187.544 296.348 185.112C295.74 184.859 295.233 184.453 294.828 183.896C294.422 183.288 294.22 182.655 294.22 181.996C294.22 181.135 294.498 180.4 295.056 179.792C295.664 179.133 296.424 178.804 297.336 178.804C297.842 178.804 298.324 178.905 298.78 179.108C303.441 181.185 308.432 182.224 313.752 182.224C322.618 182.224 327.052 179.311 327.052 173.484C327.052 171.964 326.469 170.697 325.304 169.684C324.189 168.671 322.796 167.885 321.124 167.328C319.452 166.72 317.07 166.011 313.98 165.2C309.876 164.136 306.557 163.123 304.024 162.16C301.49 161.147 299.312 159.652 297.488 157.676C295.664 155.7 294.752 153.065 294.752 149.772C294.752 146.884 295.512 144.275 297.032 141.944C298.552 139.563 300.781 137.688 303.72 136.32C306.709 134.901 310.281 134.192 314.436 134.192C320.009 134.192 325.05 135.028 329.56 136.7C330.978 137.207 331.688 138.22 331.688 139.74C331.688 140.551 331.409 141.285 330.852 141.944C330.294 142.603 329.56 142.932 328.648 142.932C328.344 142.932 327.938 142.831 327.432 142.628C323.48 141.26 319.401 140.576 315.196 140.576C311.193 140.576 307.925 141.336 305.392 142.856C302.909 144.376 301.668 146.504 301.668 149.24C301.668 151.064 302.25 152.559 303.416 153.724C304.632 154.839 306.126 155.725 307.9 156.384C309.724 156.992 312.181 157.651 315.272 158.36C319.274 159.323 322.492 160.285 324.924 161.248C327.406 162.211 329.509 163.705 331.232 165.732C333.005 167.759 333.892 170.495 333.892 173.94C333.892 176.777 333.081 179.336 331.46 181.616C329.838 183.845 327.558 185.593 324.62 186.86C321.681 188.127 318.286 188.76 314.436 188.76Z" fill="black"/>
<path d="M357.46 188.38C356.497 188.38 355.686 188.051 355.027 187.392C354.369 186.733 354.039 185.923 354.039 184.96V141.412H338.535C337.623 141.412 336.863 141.108 336.255 140.5C335.647 139.892 335.344 139.132 335.344 138.22C335.344 137.308 335.647 136.548 336.255 135.94C336.863 135.281 337.623 134.952 338.535 134.952H376.384C377.296 134.952 378.056 135.281 378.664 135.94C379.322 136.548 379.651 137.308 379.651 138.22C379.651 139.132 379.322 139.892 378.664 140.5C378.056 141.108 377.296 141.412 376.384 141.412H360.956V184.96C360.956 185.923 360.601 186.733 359.892 187.392C359.233 188.051 358.422 188.38 357.46 188.38Z" fill="black"/>
<path fill-rule="evenodd" clip-rule="evenodd" d="M209.737 14.6569C202.121 11.2633 193.612 10.4226 185.479 12.2602C177.345 14.0978 170.024 18.5152 164.607 24.8536C159.189 31.1921 155.966 39.1119 155.417 47.432C154.868 55.7521 157.024 64.0267 161.562 71.0216C166.101 78.0165 172.778 83.3571 180.6 86.2467C188.421 89.1363 196.967 89.4202 204.963 87.056C212.959 84.6919 219.977 79.8063 224.969 73.128C229.962 66.4497 232.662 58.3365 232.667 49.9983V46.1667C232.667 44.5098 234.01 43.1667 235.667 43.1667C237.323 43.1667 238.667 44.5098 238.667 46.1667V50.0017C238.661 59.6337 235.542 69.0059 229.775 76.7205C224.008 84.4351 215.901 90.0788 206.665 92.8098C197.428 95.5408 187.556 95.2129 178.521 91.8749C169.485 88.5368 161.771 82.3676 156.529 74.2873C151.286 66.2069 148.796 56.6484 149.43 47.0373C150.064 37.4261 153.787 28.2773 160.046 20.9553C166.304 13.6333 174.761 8.53042 184.156 6.4077C193.551 4.28498 203.381 5.25615 212.179 9.17638C213.693 9.85072 214.373 11.6242 213.699 13.1377C213.024 14.6511 211.251 15.3313 209.737 14.6569Z" fill="black"/>
<path fill-rule="evenodd" clip-rule="evenodd" d="M237.787 14.5443C238.959 15.7153 238.96 17.6148 237.789 18.7869L196.122 60.4953C195.56 61.0583 194.797 61.3748 194.001 61.375C193.205 61.3752 192.441 61.0591 191.879 60.4963L179.379 47.9963C178.207 46.8247 178.207 44.9252 179.379 43.7537C180.55 42.5821 182.45 42.5821 183.621 43.7537L193.999 54.1313L233.544 14.5464C234.715 13.3742 236.615 13.3733 237.787 14.5443Z" fill="black"/>
</svg>
